<?xml version="1.0" standalone="no"?>
<!DOCTYPE svg PUBLIC "-//W3C//DTD SVG 20010904//EN"
 "http://www.w3.org/TR/2001/REC-SVG-20010904/DTD/svg10.dtd">
<svg version="1.0" xmlns="http://www.w3.org/2000/svg"
 width="500.000000pt" height="500.000000pt" viewBox="0 0 500.000000 500.000000"
 preserveAspectRatio="xMidYMid meet">

<g transform="translate(0.000000,500.000000) scale(0.100000,-0.100000)"
fill="#000000" stroke="none">
<path d="M2081 3255 c-128 -61 -231 -185 -266 -320 -13 -52 -13 -61 0 -82 21
-32 38 -29 79 12 20 19 45 35 56 35 31 0 80 -53 80 -85 0 -34 -50 -85 -84 -85
-17 0 -33 10 -48 30 -26 36 -71 41 -88 11 -5 -11 -10 -84 -10 -165 l0 -145
-57 -3 -58 -3 -3 -172 c-3 -206 -7 -200 122 -188 85 7 106 16 106 46 0 33 -28
49 -86 49 l-54 0 0 90 0 90 188 0 c103 0 312 3 465 7 l277 6 0 -96 0 -97 -30
0 c-103 0 -188 -114 -160 -214 21 -74 81 -126 145 -126 l43 0 7 -135 c6 -123
9 -136 28 -147 15 -8 81 -9 226 -4 176 6 215 11 281 32 185 58 321 196 382
388 16 48 21 101 25 248 7 227 5 236 -44 240 -35 3 -37 5 -53 63 -25 93 -59
153 -129 227 -140 150 -385 214 -584 154 l-47 -14 0 173 c0 143 -3 176 -15
189 -13 13 -43 15 -198 10 -100 -3 -192 -7 -204 -10 -31 -6 -40 -47 -19 -90
22 -47 20 -67 -7 -92 -29 -27 -87 -30 -109 -4 -27 31 -29 53 -8 99 51 116 -7
146 -149 78z m51 -109 c-6 -48 14 -101 49 -130 75 -63 172 -56 235 18 32 37
35 46 32 94 l-3 52 121 0 121 0 6 -67 c4 -38 7 -198 7 -356 l0 -288 -107 3
-108 3 -60 134 c-34 73 -69 137 -79 143 -21 12 -66 -14 -66 -38 0 -8 23 -65
51 -125 28 -61 50 -112 48 -114 -2 -2 -112 -5 -244 -7 l-240 -3 -3 93 -3 92
46 0 c86 0 153 49 174 127 26 92 -56 203 -149 203 -16 0 -30 3 -30 6 0 25 104
140 160 177 38 24 46 21 42 -17z m1185 -490 c61 -67 36 -164 -53 -201 -39 -16
-46 -48 -15 -65 11 -5 82 -10 159 -10 l140 0 7 -93 c9 -119 -7 -246 -41 -332
-49 -123 -180 -238 -321 -280 -34 -11 -98 -15 -220 -15 l-173 0 0 153 c0 158
-5 177 -42 177 -9 0 -27 -13 -40 -30 -26 -35 -55 -38 -91 -10 -33 26 -43 70
-23 108 27 52 74 57 116 12 15 -16 33 -30 38 -30 17 0 42 30 42 50 0 17 4 18
26 10 55 -21 140 -4 188 38 27 24 56 91 56 132 0 20 -9 52 -19 73 l-19 37 42
0 c85 0 111 54 56 117 -41 46 -42 107 -3 153 34 41 58 51 113 46 35 -3 51 -11
77 -40z"/>
<path d="M3328 2090 c-22 -17 -31 -18 -89 -8 -78 13 -140 -1 -175 -39 -21 -22
-24 -36 -24 -98 0 -57 4 -75 18 -88 27 -24 48 -21 93 15 45 36 49 61 17 96
l-23 25 92 -7 c105 -8 148 6 159 49 13 54 -28 87 -68 55z"/>
<path d="M2124 2145 c-103 -62 -99 -221 7 -275 106 -55 233 22 233 140 0 125
-133 199 -240 135z"/>
<path d="M2344 1839 c-42 -12 -85 -63 -114 -132 l-23 -56 -36 72 c-47 95 -83
120 -163 115 -105 -8 -176 -98 -186 -237 -4 -65 -3 -70 21 -85 70 -46 440 -58
640 -20 110 21 120 32 107 122 -16 115 -76 199 -157 221 -44 12 -47 12 -89 0z"/>
</g>
</svg>
