<?xml version="1.0" standalone="no"?>
<!DOCTYPE svg PUBLIC "-//W3C//DTD SVG 20010904//EN"
 "http://www.w3.org/TR/2001/REC-SVG-20010904/DTD/svg10.dtd">
<svg version="1.0" xmlns="http://www.w3.org/2000/svg"
 width="500.000000pt" height="500.000000pt" viewBox="0 0 500.000000 500.000000"
 preserveAspectRatio="xMidYMid meet">

<g transform="translate(0.000000,500.000000) scale(0.100000,-0.100000)"
fill="#000000" stroke="none">
<path d="M2402 3414 c-20 -14 -22 -23 -22 -122 0 -81 4 -113 16 -130 18 -26
37 -28 58 -6 23 23 23 235 0 258 -19 20 -24 20 -52 0z"/>
<path d="M2910 3118 c-59 -61 -70 -78 -68 -103 2 -23 8 -31 27 -33 18 -3 40
13 97 69 73 73 87 102 62 127 -24 24 -50 11 -118 -60z"/>
<path d="M1820 3165 c-7 -8 -10 -25 -6 -38 7 -28 138 -157 159 -157 21 0 48
40 39 56 -4 8 -36 45 -70 84 -65 72 -96 86 -122 55z"/>
<path d="M2290 2995 c-73 -21 -113 -41 -176 -89 -96 -73 -161 -172 -189 -288
-38 -162 3 -313 128 -473 70 -90 94 -139 103 -206 3 -30 13 -64 21 -77 l14
-23 235 3 c272 3 266 1 278 103 8 70 21 97 101 205 103 140 135 223 135 350 0
147 -44 254 -150 361 -105 106 -211 150 -364 148 -50 0 -111 -7 -136 -14z m91
-111 c19 -23 0 -47 -45 -56 -123 -26 -226 -135 -243 -259 -7 -49 -11 -54 -35
-57 -48 -6 -49 64 -2 164 45 96 120 165 222 205 59 23 86 23 103 3z m123 -328
c31 -28 36 -40 36 -77 0 -43 -19 -85 -47 -102 -10 -6 -13 -57 -13 -227 l0
-220 -60 0 -61 0 1 221 c1 179 -1 224 -13 237 -75 86 -27 200 85 202 28 0 45
-8 72 -34z"/>
<path d="M2392 2508 c-20 -20 -14 -66 9 -79 44 -23 93 26 69 71 -12 23 -58 28
-78 8z"/>
<path d="M3171 2581 c-81 -7 -107 -24 -85 -58 9 -15 29 -18 119 -21 116 -3
135 3 135 44 0 26 -33 45 -73 42 -12 -1 -55 -4 -96 -7z"/>
<path d="M1527 2564 c-12 -12 -8 -51 7 -63 9 -8 51 -11 121 -9 90 3 110 6 119
21 8 12 8 22 0 35 -9 14 -29 17 -126 20 -63 1 -117 -1 -121 -4z"/>
<path d="M3092 2208 c-7 -7 -12 -26 -12 -43 0 -38 16 -55 50 -55 48 0 73 47
50 91 -12 22 -68 27 -88 7z"/>
<path d="M1602 2188 c-7 -7 -12 -25 -12 -40 0 -22 -5 -28 -22 -28 -34 0 -50
-15 -46 -41 2 -19 10 -25 35 -27 27 -3 32 -7 35 -34 6 -62 68 -65 68 -3 0 33
2 35 34 35 40 0 50 11 42 46 -5 20 -13 24 -41 24 -33 0 -35 2 -35 34 0 42 -31
61 -58 34z"/>
<path d="M1876 1954 c-9 -22 12 -46 38 -42 15 2 21 10 21 28 0 20 -6 26 -26
28 -18 2 -29 -3 -33 -14z"/>
<path d="M2914 1936 c-10 -26 4 -48 28 -44 17 2 23 10 23 28 0 18 -6 26 -23
28 -13 2 -25 -3 -28 -12z"/>
<path d="M3106 1901 c-10 -4 -28 -27 -40 -52 -14 -30 -33 -50 -59 -64 -53 -27
-63 -49 -37 -75 11 -11 28 -20 39 -20 22 0 39 -19 66 -74 15 -32 26 -41 45
-41 20 0 31 11 52 50 20 37 37 54 66 67 51 21 64 54 32 80 -12 10 -28 18 -34
18 -16 0 -50 37 -69 76 -18 36 -34 44 -61 35z m44 -187 l-25 -30 -27 29 -28
29 27 27 26 26 26 -25 26 -25 -25 -31z"/>
<path d="M1726 1805 c-3 -9 -6 -25 -6 -36 0 -14 -7 -19 -28 -19 -32 0 -52 -16
-52 -41 0 -23 18 -33 52 -31 24 2 27 -1 30 -35 3 -35 6 -38 33 -38 27 0 31 4
35 35 4 31 9 35 37 38 59 6 52 72 -8 72 -24 0 -28 4 -31 33 -2 26 -8 33 -29
35 -17 2 -29 -3 -33 -13z"/>
<path d="M2323 1773 l-133 -4 -15 -29 c-31 -59 -8 -152 44 -180 11 -6 25 -29
32 -52 27 -100 153 -156 257 -113 62 26 112 86 112 134 0 11 13 29 29 40 15
11 34 34 41 51 18 44 7 120 -20 142 -24 19 -4 19 -347 11z m285 -110 c-3 -26
-7 -29 -58 -35 -89 -10 -260 -9 -281 2 -19 10 -26 40 -12 53 3 4 85 7 180 7
l174 0 -3 -27z m-78 -129 c0 -18 -23 -43 -50 -54 -53 -22 -140 7 -140 47 0 10
22 13 95 13 52 0 95 -3 95 -6z"/>
</g>
</svg>
