<?xml version="1.0" standalone="no"?>
<!DOCTYPE svg PUBLIC "-//W3C//DTD SVG 20010904//EN"
 "http://www.w3.org/TR/2001/REC-SVG-20010904/DTD/svg10.dtd">
<svg version="1.0" xmlns="http://www.w3.org/2000/svg"
 width="500.000000pt" height="500.000000pt" viewBox="0 0 500.000000 500.000000"
 preserveAspectRatio="xMidYMid meet">

<g transform="translate(0.000000,500.000000) scale(0.100000,-0.100000)"
fill="#000000" stroke="none">
<path d="M2340 3448 c-62 -32 -99 -83 -107 -146 -5 -45 -2 -57 26 -106 56
-100 55 -100 -186 -106 l-198 -5 -5 -213 c-4 -174 -8 -214 -20 -222 -21 -14
-23 -13 -65 20 -45 36 -94 46 -146 31 -110 -33 -168 -161 -120 -266 48 -104
164 -147 242 -90 103 75 106 71 116 -175 l8 -195 217 -3 217 -2 6 47 c20 150
92 263 215 338 25 15 46 29 48 30 1 1 -2 34 -8 74 -25 177 60 340 215 412 34
16 86 32 114 36 l52 6 -3 91 -3 91 -192 3 -193 2 -6 25 c-4 16 1 34 15 54 53
74 52 157 -2 218 -63 72 -156 92 -237 51z"/>
<path d="M1652 3448 c-5 -7 -17 -30 -26 -51 -12 -29 -26 -42 -61 -58 -40 -18
-46 -24 -43 -47 2 -19 13 -32 37 -44 43 -22 57 -36 79 -79 12 -24 25 -35 45
-37 24 -3 30 2 43 35 21 50 40 71 74 78 38 8 54 29 46 60 -5 18 -15 27 -36 32
-31 6 -80 54 -80 77 0 17 -33 46 -52 46 -9 0 -20 -6 -26 -12z m62 -175 c-13
-12 -24 -26 -24 -32 0 -5 -15 5 -32 22 l-33 32 29 25 28 26 28 -26 28 -25 -24
-22z"/>
<path d="M2976 3364 c-9 -8 -16 -28 -16 -44 0 -36 23 -60 59 -60 54 0 82 68
43 103 -23 21 -66 22 -86 1z"/>
<path d="M3195 3165 c-32 -31 -34 -96 -5 -125 41 -41 112 -34 145 16 23 36 19
72 -14 105 -38 38 -91 40 -126 4z"/>
<path d="M3273 2858 c-26 -34 -21 -79 11 -100 56 -38 128 50 78 95 -22 20 -75
22 -89 5z"/>
<path d="M2835 2766 c-89 -41 -137 -119 -137 -221 -1 -179 172 -297 327 -224
93 44 154 156 140 259 -22 163 -185 254 -330 186z m174 -93 c63 -46 79 -155
33 -220 -86 -121 -264 -45 -250 107 11 114 130 176 217 113z"/>
<path d="M3306 2508 c-21 -30 -20 -54 4 -78 41 -41 100 -13 100 46 0 39 -16
54 -56 54 -23 0 -38 -7 -48 -22z"/>
<path d="M3098 2258 c-9 -7 -38 -61 -64 -120 -26 -60 -50 -108 -54 -108 -13 0
-22 148 -10 169 20 39 -41 68 -74 35 -18 -18 -20 -30 -6 -39 11 -7 12 -71 2
-130 -9 -48 -10 -47 -73 90 -44 98 -46 100 -81 103 -79 7 -188 -69 -236 -165
-37 -73 -55 -220 -32 -264 31 -57 246 -108 460 -109 159 0 376 45 443 92 26
18 27 24 27 98 0 96 -30 189 -83 253 -58 72 -181 125 -219 95z"/>
<path d="M1677 1832 c-21 -23 -22 -66 -1 -86 35 -35 94 -6 94 47 0 51 -59 76
-93 39z"/>
<path d="M1922 1814 c-43 -30 -17 -104 36 -104 28 0 62 34 62 60 0 25 -34 60
-58 60 -10 0 -28 -7 -40 -16z"/>
<path d="M2147 1812 c-35 -38 -12 -102 37 -102 49 0 75 70 38 103 -24 22 -55
21 -75 -1z"/>
</g>
</svg>
